<?xml version="1.0" encoding="utf-8" standalone="no"?>
<!DOCTYPE svg PUBLIC "-//W3C//DTD SVG 1.1//EN"
  "http://www.w3.org/Graphics/SVG/1.1/DTD/svg11.dtd">
<svg xmlns:xlink="http://www.w3.org/1999/xlink" width="576pt" height="432pt" viewBox="0 0 576 432" xmlns="http://www.w3.org/2000/svg" version="1.1">
 <metadata>
  <rdf:RDF xmlns:dc="http://purl.org/dc/elements/1.1/" xmlns:cc="http://creativecommons.org/ns#" xmlns:rdf="http://www.w3.org/1999/02/22-rdf-syntax-ns#">
   <cc:Work>
    <dc:type rdf:resource="http://purl.org/dc/dcmitype/StillImage"/>
    <dc:date>2025-11-11T16:41:21.558956</dc:date>
    <dc:format>image/svg+xml</dc:format>
    <dc:creator>
     <cc:Agent>
      <dc:title>Matplotlib v3.8.4, https://matplotlib.org/</dc:title>
     </cc:Agent>
    </dc:creator>
   </cc:Work>
  </rdf:RDF>
 </metadata>
 <defs>
  <style type="text/css">*{stroke-linejoin: round; stroke-linecap: butt}</style>
 </defs>
 <g id="figure_1">
  <g id="patch_1">
   <path d="M 0 432 
L 576 432 
L 576 0 
L 0 0 
z
" style="fill: #ffffff"/>
  </g>
  <g id="axes_1">
   <g id="patch_2">
    <path d="M 72 384.48 
L 518.4 384.48 
L 518.4 51.84 
L 72 51.84 
z
" style="fill: #ffffff"/>
   </g>
   <g id="matplotlib.axis_1">
    <g id="xtick_1">
     <g id="line2d_1">
      <path d="M 92.290909 384.48 
L 92.290909 51.84 
" clip-path="url(#p59179d9f7a)" style="fill: none; stroke-dasharray: 2.96,1.28; stroke-dashoffset: 0; stroke: #b0b0b0; stroke-opacity: 0.6; stroke-width: 0.8"/>
     </g>
     <g id="line2d_2">
      <defs>
       <path id="m840e137563" d="M 0 0 
L 0 3.5 
" style="stroke: #000000; stroke-width: 0.8"/>
      </defs>
      <g>
       <use xlink:href="#m840e137563" x="92.290909" y="384.48" style="stroke: #000000; stroke-width: 0.8"/>
      </g>
     </g>
     <g id="text_1">
      <!-- $i-1$ -->
      <g transform="translate(81.540909 399.078438) scale(0.1 -0.1)">
       <defs>
        <path id="DejaVuSans-Oblique-69" d="M 1172 4863 
L 1747 4863 
L 1606 4134 
L 1031 4134 
L 1172 4863 
z
M 909 3500 
L 1484 3500 
L 800 0 
L 225 0 
L 909 3500 
z
" transform="scale(0.015625)"/>
        <path id="DejaVuSans-2212" d="M 678 2272 
L 4684 2272 
L 4684 1741 
L 678 1741 
L 678 2272 
z
" transform="scale(0.015625)"/>
        <path id="DejaVuSans-31" d="M 794 531 
L 1825 531 
L 1825 4091 
L 703 3866 
L 703 4441 
L 1819 4666 
L 2450 4666 
L 2450 531 
L 3481 531 
L 3481 0 
L 794 0 
L 794 531 
z
" transform="scale(0.015625)"/>
       </defs>
       <use xlink:href="#DejaVuSans-Oblique-69" transform="translate(0 0.015625)"/>
       <use xlink:href="#DejaVuSans-2212" transform="translate(47.265625 0.015625)"/>
       <use xlink:href="#DejaVuSans-31" transform="translate(150.537109 0.015625)"/>
      </g>
     </g>
    </g>
    <g id="xtick_2">
     <g id="line2d_3">
      <path d="M 227.563636 384.48 
L 227.563636 51.84 
" clip-path="url(#p59179d9f7a)" style="fill: none; stroke-dasharray: 2.96,1.28; stroke-dashoffset: 0; stroke: #b0b0b0; stroke-opacity: 0.6; stroke-width: 0.8"/>
     </g>
     <g id="line2d_4">
      <g>
       <use xlink:href="#m840e137563" x="227.563636" y="384.48" style="stroke: #000000; stroke-width: 0.8"/>
      </g>
     </g>
     <g id="text_2">
      <!-- $i$ -->
      <g transform="translate(226.163636 399.078438) scale(0.1 -0.1)">
       <use xlink:href="#DejaVuSans-Oblique-69" transform="translate(0 0.015625)"/>
      </g>
     </g>
    </g>
    <g id="xtick_3">
     <g id="line2d_5">
      <path d="M 362.836364 384.48 
L 362.836364 51.84 
" clip-path="url(#p59179d9f7a)" style="fill: none; stroke-dasharray: 2.96,1.28; stroke-dashoffset: 0; stroke: #b0b0b0; stroke-opacity: 0.6; stroke-width: 0.8"/>
     </g>
     <g id="line2d_6">
      <g>
       <use xlink:href="#m840e137563" x="362.836364" y="384.48" style="stroke: #000000; stroke-width: 0.8"/>
      </g>
     </g>
     <g id="text_3">
      <!-- $i+1$ -->
      <g transform="translate(352.086364 399.078438) scale(0.1 -0.1)">
       <defs>
        <path id="DejaVuSans-2b" d="M 2944 4013 
L 2944 2272 
L 4684 2272 
L 4684 1741 
L 2944 1741 
L 2944 0 
L 2419 0 
L 2419 1741 
L 678 1741 
L 678 2272 
L 2419 2272 
L 2419 4013 
L 2944 4013 
z
" transform="scale(0.015625)"/>
       </defs>
       <use xlink:href="#DejaVuSans-Oblique-69" transform="translate(0 0.015625)"/>
       <use xlink:href="#DejaVuSans-2b" transform="translate(47.265625 0.015625)"/>
       <use xlink:href="#DejaVuSans-31" transform="translate(150.537109 0.015625)"/>
      </g>
     </g>
    </g>
    <g id="xtick_4">
     <g id="line2d_7">
      <path d="M 498.109091 384.48 
L 498.109091 51.84 
" clip-path="url(#p59179d9f7a)" style="fill: none; stroke-dasharray: 2.96,1.28; stroke-dashoffset: 0; stroke: #b0b0b0; stroke-opacity: 0.6; stroke-width: 0.8"/>
     </g>
     <g id="line2d_8">
      <g>
       <use xlink:href="#m840e137563" x="498.109091" y="384.48" style="stroke: #000000; stroke-width: 0.8"/>
      </g>
     </g>
     <g id="text_4">
      <!-- $i+2$ -->
      <g transform="translate(487.359091 399.078438) scale(0.1 -0.1)">
       <defs>
        <path id="DejaVuSans-32" d="M 1228 531 
L 3431 531 
L 3431 0 
L 469 0 
L 469 531 
Q 828 903 1448 1529 
Q 2069 2156 2228 2338 
Q 2531 2678 2651 2914 
Q 2772 3150 2772 3378 
Q 2772 3750 2511 3984 
Q 2250 4219 1831 4219 
Q 1534 4219 1204 4116 
Q 875 4013 500 3803 
L 500 4441 
Q 881 4594 1212 4672 
Q 1544 4750 1819 4750 
Q 2544 4750 2975 4387 
Q 3406 4025 3406 3419 
Q 3406 3131 3298 2873 
Q 3191 2616 2906 2266 
Q 2828 2175 2409 1742 
Q 1991 1309 1228 531 
z
" transform="scale(0.015625)"/>
       </defs>
       <use xlink:href="#DejaVuSans-Oblique-69" transform="translate(0 0.015625)"/>
       <use xlink:href="#DejaVuSans-2b" transform="translate(47.265625 0.015625)"/>
       <use xlink:href="#DejaVuSans-32" transform="translate(150.537109 0.015625)"/>
      </g>
     </g>
    </g>
    <g id="text_5">
     <!-- $x$ -->
     <g transform="translate(292.2 412.756563) scale(0.1 -0.1)">
      <defs>
       <path id="DejaVuSans-Oblique-78" d="M 3841 3500 
L 2234 1784 
L 3219 0 
L 2559 0 
L 1819 1388 
L 531 0 
L -166 0 
L 1556 1844 
L 641 3500 
L 1300 3500 
L 1972 2234 
L 3144 3500 
L 3841 3500 
z
" transform="scale(0.015625)"/>
      </defs>
      <use xlink:href="#DejaVuSans-Oblique-78" transform="translate(0 0.3125)"/>
     </g>
    </g>
   </g>
   <g id="matplotlib.axis_2">
    <g id="ytick_1">
     <g id="line2d_9">
      <path d="M 72 369.36 
L 518.4 369.36 
" clip-path="url(#p59179d9f7a)" style="fill: none; stroke-dasharray: 2.96,1.28; stroke-dashoffset: 0; stroke: #b0b0b0; stroke-opacity: 0.6; stroke-width: 0.8"/>
     </g>
     <g id="line2d_10">
      <defs>
       <path id="m32bdca1d54" d="M 0 0 
L -3.5 0 
" style="stroke: #000000; stroke-width: 0.8"/>
      </defs>
      <g>
       <use xlink:href="#m32bdca1d54" x="72" y="369.36" style="stroke: #000000; stroke-width: 0.8"/>
      </g>
     </g>
     <g id="text_6">
      <!-- 0.0 -->
      <g transform="translate(49.096875 373.159219) scale(0.1 -0.1)">
       <defs>
        <path id="DejaVuSans-30" d="M 2034 4250 
Q 1547 4250 1301 3770 
Q 1056 3291 1056 2328 
Q 1056 1369 1301 889 
Q 1547 409 2034 409 
Q 2525 409 2770 889 
Q 3016 1369 3016 2328 
Q 3016 3291 2770 3770 
Q 2525 4250 2034 4250 
z
M 2034 4750 
Q 2819 4750 3233 4129 
Q 3647 3509 3647 2328 
Q 3647 1150 3233 529 
Q 2819 -91 2034 -91 
Q 1250 -91 836 529 
Q 422 1150 422 2328 
Q 422 3509 836 4129 
Q 1250 4750 2034 4750 
z
" transform="scale(0.015625)"/>
        <path id="DejaVuSans-2e" d="M 684 794 
L 1344 794 
L 1344 0 
L 684 0 
L 684 794 
z
" transform="scale(0.015625)"/>
       </defs>
       <use xlink:href="#DejaVuSans-30"/>
       <use xlink:href="#DejaVuSans-2e" x="63.623047"/>
       <use xlink:href="#DejaVuSans-30" x="95.410156"/>
      </g>
     </g>
    </g>
    <g id="ytick_2">
     <g id="line2d_11">
      <path d="M 72 329.04 
L 518.4 329.04 
" clip-path="url(#p59179d9f7a)" style="fill: none; stroke-dasharray: 2.96,1.28; stroke-dashoffset: 0; stroke: #b0b0b0; stroke-opacity: 0.6; stroke-width: 0.8"/>
     </g>
     <g id="line2d_12">
      <g>
       <use xlink:href="#m32bdca1d54" x="72" y="329.04" style="stroke: #000000; stroke-width: 0.8"/>
      </g>
     </g>
     <g id="text_7">
      <!-- 0.1 -->
      <g transform="translate(49.096875 332.839219) scale(0.1 -0.1)">
       <use xlink:href="#DejaVuSans-30"/>
       <use xlink:href="#DejaVuSans-2e" x="63.623047"/>
       <use xlink:href="#DejaVuSans-31" x="95.410156"/>
      </g>
     </g>
    </g>
    <g id="ytick_3">
     <g id="line2d_13">
      <path d="M 72 288.72 
L 518.4 288.72 
" clip-path="url(#p59179d9f7a)" style="fill: none; stroke-dasharray: 2.96,1.28; stroke-dashoffset: 0; stroke: #b0b0b0; stroke-opacity: 0.6; stroke-width: 0.8"/>
     </g>
     <g id="line2d_14">
      <g>
       <use xlink:href="#m32bdca1d54" x="72" y="288.72" style="stroke: #000000; stroke-width: 0.8"/>
      </g>
     </g>
     <g id="text_8">
      <!-- 0.2 -->
      <g transform="translate(49.096875 292.519219) scale(0.1 -0.1)">
       <use xlink:href="#DejaVuSans-30"/>
       <use xlink:href="#DejaVuSans-2e" x="63.623047"/>
       <use xlink:href="#DejaVuSans-32" x="95.410156"/>
      </g>
     </g>
    </g>
    <g id="ytick_4">
     <g id="line2d_15">
      <path d="M 72 248.4 
L 518.4 248.4 
" clip-path="url(#p59179d9f7a)" style="fill: none; stroke-dasharray: 2.96,1.28; stroke-dashoffset: 0; stroke: #b0b0b0; stroke-opacity: 0.6; stroke-width: 0.8"/>
     </g>
     <g id="line2d_16">
      <g>
       <use xlink:href="#m32bdca1d54" x="72" y="248.4" style="stroke: #000000; stroke-width: 0.8"/>
      </g>
     </g>
     <g id="text_9">
      <!-- 0.3 -->
      <g transform="translate(49.096875 252.199219) scale(0.1 -0.1)">
       <defs>
        <path id="DejaVuSans-33" d="M 2597 2516 
Q 3050 2419 3304 2112 
Q 3559 1806 3559 1356 
Q 3559 666 3084 287 
Q 2609 -91 1734 -91 
Q 1441 -91 1130 -33 
Q 819 25 488 141 
L 488 750 
Q 750 597 1062 519 
Q 1375 441 1716 441 
Q 2309 441 2620 675 
Q 2931 909 2931 1356 
Q 2931 1769 2642 2001 
Q 2353 2234 1838 2234 
L 1294 2234 
L 1294 2753 
L 1863 2753 
Q 2328 2753 2575 2939 
Q 2822 3125 2822 3475 
Q 2822 3834 2567 4026 
Q 2313 4219 1838 4219 
Q 1578 4219 1281 4162 
Q 984 4106 628 3988 
L 628 4550 
Q 988 4650 1302 4700 
Q 1616 4750 1894 4750 
Q 2613 4750 3031 4423 
Q 3450 4097 3450 3541 
Q 3450 3153 3228 2886 
Q 3006 2619 2597 2516 
z
" transform="scale(0.015625)"/>
       </defs>
       <use xlink:href="#DejaVuSans-30"/>
       <use xlink:href="#DejaVuSans-2e" x="63.623047"/>
       <use xlink:href="#DejaVuSans-33" x="95.410156"/>
      </g>
     </g>
    </g>
    <g id="ytick_5">
     <g id="line2d_17">
      <path d="M 72 208.08 
L 518.4 208.08 
" clip-path="url(#p59179d9f7a)" style="fill: none; stroke-dasharray: 2.96,1.28; stroke-dashoffset: 0; stroke: #b0b0b0; stroke-opacity: 0.6; stroke-width: 0.8"/>
     </g>
     <g id="line2d_18">
      <g>
       <use xlink:href="#m32bdca1d54" x="72" y="208.08" style="stroke: #000000; stroke-width: 0.8"/>
      </g>
     </g>
     <g id="text_10">
      <!-- 0.4 -->
      <g transform="translate(49.096875 211.879219) scale(0.1 -0.1)">
       <defs>
        <path id="DejaVuSans-34" d="M 2419 4116 
L 825 1625 
L 2419 1625 
L 2419 4116 
z
M 2253 4666 
L 3047 4666 
L 3047 1625 
L 3713 1625 
L 3713 1100 
L 3047 1100 
L 3047 0 
L 2419 0 
L 2419 1100 
L 313 1100 
L 313 1709 
L 2253 4666 
z
" transform="scale(0.015625)"/>
       </defs>
       <use xlink:href="#DejaVuSans-30"/>
       <use xlink:href="#DejaVuSans-2e" x="63.623047"/>
       <use xlink:href="#DejaVuSans-34" x="95.410156"/>
      </g>
     </g>
    </g>
    <g id="ytick_6">
     <g id="line2d_19">
      <path d="M 72 167.76 
L 518.4 167.76 
" clip-path="url(#p59179d9f7a)" style="fill: none; stroke-dasharray: 2.96,1.28; stroke-dashoffset: 0; stroke: #b0b0b0; stroke-opacity: 0.6; stroke-width: 0.8"/>
     </g>
     <g id="line2d_20">
      <g>
       <use xlink:href="#m32bdca1d54" x="72" y="167.76" style="stroke: #000000; stroke-width: 0.8"/>
      </g>
     </g>
     <g id="text_11">
      <!-- 0.5 -->
      <g transform="translate(49.096875 171.559219) scale(0.1 -0.1)">
       <defs>
        <path id="DejaVuSans-35" d="M 691 4666 
L 3169 4666 
L 3169 4134 
L 1269 4134 
L 1269 2991 
Q 1406 3038 1543 3061 
Q 1681 3084 1819 3084 
Q 2600 3084 3056 2656 
Q 3513 2228 3513 1497 
Q 3513 744 3044 326 
Q 2575 -91 1722 -91 
Q 1428 -91 1123 -41 
Q 819 9 494 109 
L 494 744 
Q 775 591 1075 516 
Q 1375 441 1709 441 
Q 2250 441 2565 725 
Q 2881 1009 2881 1497 
Q 2881 1984 2565 2268 
Q 2250 2553 1709 2553 
Q 1456 2553 1204 2497 
Q 953 2441 691 2322 
L 691 4666 
z
" transform="scale(0.015625)"/>
       </defs>
       <use xlink:href="#DejaVuSans-30"/>
       <use xlink:href="#DejaVuSans-2e" x="63.623047"/>
       <use xlink:href="#DejaVuSans-35" x="95.410156"/>
      </g>
     </g>
    </g>
    <g id="ytick_7">
     <g id="line2d_21">
      <path d="M 72 127.44 
L 518.4 127.44 
" clip-path="url(#p59179d9f7a)" style="fill: none; stroke-dasharray: 2.96,1.28; stroke-dashoffset: 0; stroke: #b0b0b0; stroke-opacity: 0.6; stroke-width: 0.8"/>
     </g>
     <g id="line2d_22">
      <g>
       <use xlink:href="#m32bdca1d54" x="72" y="127.44" style="stroke: #000000; stroke-width: 0.8"/>
      </g>
     </g>
     <g id="text_12">
      <!-- 0.6 -->
      <g transform="translate(49.096875 131.239219) scale(0.1 -0.1)">
       <defs>
        <path id="DejaVuSans-36" d="M 2113 2584 
Q 1688 2584 1439 2293 
Q 1191 2003 1191 1497 
Q 1191 994 1439 701 
Q 1688 409 2113 409 
Q 2538 409 2786 701 
Q 3034 994 3034 1497 
Q 3034 2003 2786 2293 
Q 2538 2584 2113 2584 
z
M 3366 4563 
L 3366 3988 
Q 3128 4100 2886 4159 
Q 2644 4219 2406 4219 
Q 1781 4219 1451 3797 
Q 1122 3375 1075 2522 
Q 1259 2794 1537 2939 
Q 1816 3084 2150 3084 
Q 2853 3084 3261 2657 
Q 3669 2231 3669 1497 
Q 3669 778 3244 343 
Q 2819 -91 2113 -91 
Q 1303 -91 875 529 
Q 447 1150 447 2328 
Q 447 3434 972 4092 
Q 1497 4750 2381 4750 
Q 2619 4750 2861 4703 
Q 3103 4656 3366 4563 
z
" transform="scale(0.015625)"/>
       </defs>
       <use xlink:href="#DejaVuSans-30"/>
       <use xlink:href="#DejaVuSans-2e" x="63.623047"/>
       <use xlink:href="#DejaVuSans-36" x="95.410156"/>
      </g>
     </g>
    </g>
    <g id="ytick_8">
     <g id="line2d_23">
      <path d="M 72 87.12 
L 518.4 87.12 
" clip-path="url(#p59179d9f7a)" style="fill: none; stroke-dasharray: 2.96,1.28; stroke-dashoffset: 0; stroke: #b0b0b0; stroke-opacity: 0.6; stroke-width: 0.8"/>
     </g>
     <g id="line2d_24">
      <g>
       <use xlink:href="#m32bdca1d54" x="72" y="87.12" style="stroke: #000000; stroke-width: 0.8"/>
      </g>
     </g>
     <g id="text_13">
      <!-- 0.7 -->
      <g transform="translate(49.096875 90.919219) scale(0.1 -0.1)">
       <defs>
        <path id="DejaVuSans-37" d="M 525 4666 
L 3525 4666 
L 3525 4397 
L 1831 0 
L 1172 0 
L 2766 4134 
L 525 4134 
L 525 4666 
z
" transform="scale(0.015625)"/>
       </defs>
       <use xlink:href="#DejaVuSans-30"/>
       <use xlink:href="#DejaVuSans-2e" x="63.623047"/>
       <use xlink:href="#DejaVuSans-37" x="95.410156"/>
      </g>
     </g>
    </g>
    <g id="text_14">
     <!-- $B_i^2(x)$ -->
     <g transform="translate(42.296875 231.21) rotate(-90) scale(0.1 -0.1)">
      <defs>
       <path id="DejaVuSans-Oblique-42" d="M 1081 4666 
L 2694 4666 
Q 3350 4666 3675 4422 
Q 4000 4178 4000 3688 
Q 4000 3238 3720 2911 
Q 3441 2584 2988 2516 
Q 3375 2428 3569 2181 
Q 3763 1934 3763 1522 
Q 3763 819 3242 409 
Q 2722 0 1819 0 
L 172 0 
L 1081 4666 
z
M 1234 2228 
L 903 519 
L 1919 519 
Q 2491 519 2800 781 
Q 3109 1044 3109 1522 
Q 3109 1891 2904 2059 
Q 2700 2228 2247 2228 
L 1234 2228 
z
M 1606 4147 
L 1331 2741 
L 2272 2741 
Q 2775 2741 3058 2959 
Q 3341 3178 3341 3566 
Q 3341 3869 3150 4008 
Q 2959 4147 2541 4147 
L 1606 4147 
z
" transform="scale(0.015625)"/>
       <path id="DejaVuSans-28" d="M 1984 4856 
Q 1566 4138 1362 3434 
Q 1159 2731 1159 2009 
Q 1159 1288 1364 580 
Q 1569 -128 1984 -844 
L 1484 -844 
Q 1016 -109 783 600 
Q 550 1309 550 2009 
Q 550 2706 781 3412 
Q 1013 4119 1484 4856 
L 1984 4856 
z
" transform="scale(0.015625)"/>
       <path id="DejaVuSans-29" d="M 513 4856 
L 1013 4856 
Q 1481 4119 1714 3412 
Q 1947 2706 1947 2009 
Q 1947 1309 1714 600 
Q 1481 -109 1013 -844 
L 513 -844 
Q 928 -128 1133 580 
Q 1338 1288 1338 2009 
Q 1338 2731 1133 3434 
Q 928 4138 513 4856 
z
" transform="scale(0.015625)"/>
      </defs>
      <use xlink:href="#DejaVuSans-Oblique-42" transform="translate(0 0.701562)"/>
      <use xlink:href="#DejaVuSans-32" transform="translate(75.620286 39.046875) scale(0.7)"/>
      <use xlink:href="#DejaVuSans-Oblique-69" transform="translate(68.603516 -26.642188) scale(0.7)"/>
      <use xlink:href="#DejaVuSans-28" transform="translate(122.890794 0.701562)"/>
      <use xlink:href="#DejaVuSans-Oblique-78" transform="translate(161.904466 0.701562)"/>
      <use xlink:href="#DejaVuSans-29" transform="translate(221.084154 0.701562)"/>
     </g>
    </g>
   </g>
   <g id="line2d_25">
    <path d="M 92.290909 369.36 
L 93.6573 369.339431 
L 95.023691 369.277723 
L 96.390083 369.174876 
L 97.756474 369.030891 
L 99.122865 368.845767 
L 100.489256 368.619504 
L 101.855647 368.352103 
L 103.222039 368.043563 
L 104.58843 367.693884 
L 105.954821 367.303067 
L 107.321212 366.871111 
L 108.687603 366.398017 
L 110.053994 365.883783 
L 111.420386 365.328411 
L 112.786777 364.731901 
L 114.153168 364.094252 
L 115.519559 363.415464 
L 116.88595 362.695537 
L 118.252342 361.934472 
L 119.618733 361.132268 
L 120.985124 360.288926 
L 122.351515 359.404444 
L 123.717906 358.478825 
L 125.084298 357.512066 
L 126.450689 356.504169 
L 127.81708 355.455133 
L 129.183471 354.364959 
L 130.549862 353.233646 
L 131.916253 352.061194 
L 133.282645 350.847603 
L 134.649036 349.592874 
L 136.015427 348.297006 
L 137.381818 346.96 
L 138.748209 345.581855 
L 140.114601 344.162571 
L 141.480992 342.702149 
L 142.847383 341.200588 
L 144.213774 339.657888 
L 145.580165 338.07405 
L 146.946556 336.449073 
L 148.312948 334.782957 
L 149.679339 333.075702 
L 151.04573 331.327309 
L 152.412121 329.537778 
L 153.778512 327.707107 
L 155.144904 325.835298 
L 156.511295 323.922351 
L 157.877686 321.968264 
L 159.244077 319.973039 
L 160.610468 317.936676 
L 161.97686 315.859174 
L 163.343251 313.740533 
L 164.709642 311.580753 
L 166.076033 309.379835 
L 167.442424 307.137778 
L 168.808815 304.854582 
L 170.175207 302.530248 
L 171.541598 300.164775 
L 172.907989 297.758163 
L 174.27438 295.310413 
L 175.640771 292.821524 
L 177.007163 290.291497 
L 178.373554 287.720331 
L 179.739945 285.108026 
L 181.106336 282.454582 
L 182.472727 279.76 
L 183.839118 277.024279 
L 185.20551 274.24742 
L 186.571901 271.429421 
L 187.938292 268.570285 
L 189.304683 265.670009 
L 190.671074 262.728595 
L 192.037466 259.746042 
L 193.403857 256.722351 
L 194.770248 253.657521 
L 196.136639 250.551552 
L 197.50303 247.404444 
L 198.869421 244.216198 
L 200.235813 240.986814 
L 201.602204 237.71629 
L 202.968595 234.404628 
L 204.334986 231.051827 
L 205.701377 227.657888 
L 207.067769 224.22281 
L 208.43416 220.746593 
L 209.800551 217.229238 
L 211.166942 213.670744 
L 212.533333 210.071111 
L 213.899725 206.43034 
L 215.266116 202.74843 
L 216.632507 199.025381 
L 217.998898 195.261194 
L 219.365289 191.455868 
L 220.73168 187.609403 
L 222.098072 183.7218 
L 223.464463 179.793058 
L 224.830854 175.823177 
L 226.197245 171.812158 
L 227.563636 167.76 
" clip-path="url(#p59179d9f7a)" style="fill: none; stroke: #0000ff; stroke-width: 1.5; stroke-linecap: square"/>
   </g>
   <g id="line2d_26">
    <path d="M 227.563636 167.76 
L 228.930028 163.728411 
L 230.296419 159.7791 
L 231.66281 155.912066 
L 233.029201 152.127309 
L 234.395592 148.42483 
L 235.761983 144.804628 
L 237.128375 141.266703 
L 238.494766 137.811056 
L 239.861157 134.437686 
L 241.227548 131.146593 
L 242.593939 127.937778 
L 243.960331 124.81124 
L 245.326722 121.766979 
L 246.693113 118.804995 
L 248.059504 115.925289 
L 249.425895 113.12786 
L 250.792287 110.412709 
L 252.158678 107.779835 
L 253.525069 105.229238 
L 254.89146 102.760918 
L 256.257851 100.374876 
L 257.624242 98.071111 
L 258.990634 95.849624 
L 260.357025 93.710413 
L 261.723416 91.65348 
L 263.089807 89.678825 
L 264.456198 87.786446 
L 265.82259 85.976345 
L 267.188981 84.248522 
L 268.555372 82.602975 
L 269.921763 81.039706 
L 271.288154 79.558714 
L 272.654545 78.16 
L 274.020937 76.843563 
L 275.387328 75.609403 
L 276.753719 74.457521 
L 278.12011 73.387916 
L 279.486501 72.400588 
L 280.852893 71.495537 
L 282.219284 70.672764 
L 283.585675 69.932268 
L 284.952066 69.27405 
L 286.318457 68.698108 
L 287.684848 68.204444 
L 289.05124 67.793058 
L 290.417631 67.463949 
L 291.784022 67.217117 
L 293.150413 67.052562 
L 294.516804 66.970285 
L 295.883196 66.970285 
L 297.249587 67.052562 
L 298.615978 67.217117 
L 299.982369 67.463949 
L 301.34876 67.793058 
L 302.715152 68.204444 
L 304.081543 68.698108 
L 305.447934 69.27405 
L 306.814325 69.932268 
L 308.180716 70.672764 
L 309.547107 71.495537 
L 310.913499 72.400588 
L 312.27989 73.387916 
L 313.646281 74.457521 
L 315.012672 75.609403 
L 316.379063 76.843563 
L 317.745455 78.16 
L 319.111846 79.558714 
L 320.478237 81.039706 
L 321.844628 82.602975 
L 323.211019 84.248522 
L 324.57741 85.976345 
L 325.943802 87.786446 
L 327.310193 89.678825 
L 328.676584 91.65348 
L 330.042975 93.710413 
L 331.409366 95.849624 
L 332.775758 98.071111 
L 334.142149 100.374876 
L 335.50854 102.760918 
L 336.874931 105.229238 
L 338.241322 107.779835 
L 339.607713 110.412709 
L 340.974105 113.12786 
L 342.340496 115.925289 
L 343.706887 118.804995 
L 345.073278 121.766979 
L 346.439669 124.81124 
L 347.806061 127.937778 
L 349.172452 131.146593 
L 350.538843 134.437686 
L 351.905234 137.811056 
L 353.271625 141.266703 
L 354.638017 144.804628 
L 356.004408 148.42483 
L 357.370799 152.127309 
L 358.73719 155.912066 
L 360.103581 159.7791 
L 361.469972 163.728411 
L 362.836364 167.76 
" clip-path="url(#p59179d9f7a)" style="fill: none; stroke: #0000ff; stroke-width: 1.5; stroke-linecap: square"/>
   </g>
   <g id="line2d_27">
    <path d="M 362.836364 167.76 
L 364.202755 171.812158 
L 365.569146 175.823177 
L 366.935537 179.793058 
L 368.301928 183.7218 
L 369.66832 187.609403 
L 371.034711 191.455868 
L 372.401102 195.261194 
L 373.767493 199.025381 
L 375.133884 202.74843 
L 376.500275 206.43034 
L 377.866667 210.071111 
L 379.233058 213.670744 
L 380.599449 217.229238 
L 381.96584 220.746593 
L 383.332231 224.22281 
L 384.698623 227.657888 
L 386.065014 231.051827 
L 387.431405 234.404628 
L 388.797796 237.71629 
L 390.164187 240.986814 
L 391.530579 244.216198 
L 392.89697 247.404444 
L 394.263361 250.551552 
L 395.629752 253.657521 
L 396.996143 256.722351 
L 398.362534 259.746042 
L 399.728926 262.728595 
L 401.095317 265.670009 
L 402.461708 268.570285 
L 403.828099 271.429421 
L 405.19449 274.24742 
L 406.560882 277.024279 
L 407.927273 279.76 
L 409.293664 282.454582 
L 410.660055 285.108026 
L 412.026446 287.720331 
L 413.392837 290.291497 
L 414.759229 292.821524 
L 416.12562 295.310413 
L 417.492011 297.758163 
L 418.858402 300.164775 
L 420.224793 302.530248 
L 421.591185 304.854582 
L 422.957576 307.137778 
L 424.323967 309.379835 
L 425.690358 311.580753 
L 427.056749 313.740533 
L 428.42314 315.859174 
L 429.789532 317.936676 
L 431.155923 319.973039 
L 432.522314 321.968264 
L 433.888705 323.922351 
L 435.255096 325.835298 
L 436.621488 327.707107 
L 437.987879 329.537778 
L 439.35427 331.327309 
L 440.720661 333.075702 
L 442.087052 334.782957 
L 443.453444 336.449073 
L 444.819835 338.07405 
L 446.186226 339.657888 
L 447.552617 341.200588 
L 448.919008 342.702149 
L 450.285399 344.162571 
L 451.651791 345.581855 
L 453.018182 346.96 
L 454.384573 348.297006 
L 455.750964 349.592874 
L 457.117355 350.847603 
L 458.483747 352.061194 
L 459.850138 353.233646 
L 461.216529 354.364959 
L 462.58292 355.455133 
L 463.949311 356.504169 
L 465.315702 357.512066 
L 466.682094 358.478825 
L 468.048485 359.404444 
L 469.414876 360.288926 
L 470.781267 361.132268 
L 472.147658 361.934472 
L 473.51405 362.695537 
L 474.880441 363.415464 
L 476.246832 364.094252 
L 477.613223 364.731901 
L 478.979614 365.328411 
L 480.346006 365.883783 
L 481.712397 366.398017 
L 483.078788 366.871111 
L 484.445179 367.303067 
L 485.81157 367.693884 
L 487.177961 368.043563 
L 488.544353 368.352103 
L 489.910744 368.619504 
L 491.277135 368.845767 
L 492.643526 369.030891 
L 494.009917 369.174876 
L 495.376309 369.277723 
L 496.7427 369.339431 
L 498.109091 369.36 
" clip-path="url(#p59179d9f7a)" style="fill: none; stroke: #0000ff; stroke-width: 1.5; stroke-linecap: square"/>
   </g>
   <g id="line2d_28">
    <defs>
     <path id="mbe58e0407b" d="M 0 2.5 
C 0.663008 2.5 1.29895 2.236584 1.767767 1.767767 
C 2.236584 1.29895 2.5 0.663008 2.5 0 
C 2.5 -0.663008 2.236584 -1.29895 1.767767 -1.767767 
C 1.29895 -2.236584 0.663008 -2.5 0 -2.5 
C -0.663008 -2.5 -1.29895 -2.236584 -1.767767 -1.767767 
C -2.236584 -1.29895 -2.5 -0.663008 -2.5 0 
C -2.5 0.663008 -2.236584 1.29895 -1.767767 1.767767 
C -1.29895 2.236584 -0.663008 2.5 0 2.5 
z
" style="stroke: #ff0000"/>
    </defs>
    <g clip-path="url(#p59179d9f7a)">
     <use xlink:href="#mbe58e0407b" x="227.563636" y="167.76" style="fill: #ff0000; stroke: #ff0000"/>
     <use xlink:href="#mbe58e0407b" x="362.836364" y="167.76" style="fill: #ff0000; stroke: #ff0000"/>
     <use xlink:href="#mbe58e0407b" x="295.2" y="66.96" style="fill: #ff0000; stroke: #ff0000"/>
    </g>
   </g>
   <g id="line2d_29">
    <path d="M 72 369.36 
L 518.4 369.36 
" clip-path="url(#p59179d9f7a)" style="fill: none; stroke: #000000; stroke-width: 0.5; stroke-linecap: square"/>
   </g>
   <g id="line2d_30">
    <path d="M 92.290909 384.48 
L 92.290909 51.84 
" clip-path="url(#p59179d9f7a)" style="fill: none; stroke-dasharray: 1.85,0.8; stroke-dashoffset: 0; stroke: #808080; stroke-width: 0.5"/>
   </g>
   <g id="line2d_31">
    <path d="M 227.563636 384.48 
L 227.563636 51.84 
" clip-path="url(#p59179d9f7a)" style="fill: none; stroke-dasharray: 1.85,0.8; stroke-dashoffset: 0; stroke: #808080; stroke-width: 0.5"/>
   </g>
   <g id="line2d_32">
    <path d="M 362.836364 384.48 
L 362.836364 51.84 
" clip-path="url(#p59179d9f7a)" style="fill: none; stroke-dasharray: 1.85,0.8; stroke-dashoffset: 0; stroke: #808080; stroke-width: 0.5"/>
   </g>
   <g id="line2d_33">
    <path d="M 498.109091 384.48 
L 498.109091 51.84 
" clip-path="url(#p59179d9f7a)" style="fill: none; stroke-dasharray: 1.85,0.8; stroke-dashoffset: 0; stroke: #808080; stroke-width: 0.5"/>
   </g>
   <g id="patch_3">
    <path d="M 72 384.48 
L 72 51.84 
" style="fill: none; stroke: #000000; stroke-width: 0.8; stroke-linejoin: miter; stroke-linecap: square"/>
   </g>
   <g id="patch_4">
    <path d="M 518.4 384.48 
L 518.4 51.84 
" style="fill: none; stroke: #000000; stroke-width: 0.8; stroke-linejoin: miter; stroke-linecap: square"/>
   </g>
   <g id="patch_5">
    <path d="M 72 384.48 
L 518.4 384.48 
" style="fill: none; stroke: #000000; stroke-width: 0.8; stroke-linejoin: miter; stroke-linecap: square"/>
   </g>
   <g id="patch_6">
    <path d="M 72 51.84 
L 518.4 51.84 
" style="fill: none; stroke: #000000; stroke-width: 0.8; stroke-linejoin: miter; stroke-linecap: square"/>
   </g>
   <g id="text_15">
    <!--  $(i, 0.5)$ -->
    <g transform="translate(227.563636 165.680313) scale(0.1 -0.1)">
     <defs>
      <path id="DejaVuSans-20" transform="scale(0.015625)"/>
      <path id="DejaVuSans-2c" d="M 750 794 
L 1409 794 
L 1409 256 
L 897 -744 
L 494 -744 
L 750 256 
L 750 794 
z
" transform="scale(0.015625)"/>
     </defs>
     <use xlink:href="#DejaVuSans-20" transform="translate(0 0.015625)"/>
     <use xlink:href="#DejaVuSans-28" transform="translate(31.787109 0.015625)"/>
     <use xlink:href="#DejaVuSans-Oblique-69" transform="translate(70.800781 0.015625)"/>
     <use xlink:href="#DejaVuSans-2c" transform="translate(98.583984 0.015625)"/>
     <use xlink:href="#DejaVuSans-30" transform="translate(149.853516 0.015625)"/>
     <use xlink:href="#DejaVuSans-2e" transform="translate(213.476562 0.015625)"/>
     <use xlink:href="#DejaVuSans-35" transform="translate(245.263672 0.015625)"/>
     <use xlink:href="#DejaVuSans-29" transform="translate(308.886719 0.015625)"/>
    </g>
   </g>
   <g id="text_16">
    <!--  $(i+1, 0.5)$ -->
    <g transform="translate(362.836364 165.680313) scale(0.1 -0.1)">
     <use xlink:href="#DejaVuSans-20" transform="translate(0 0.015625)"/>
     <use xlink:href="#DejaVuSans-28" transform="translate(31.787109 0.015625)"/>
     <use xlink:href="#DejaVuSans-Oblique-69" transform="translate(70.800781 0.015625)"/>
     <use xlink:href="#DejaVuSans-2b" transform="translate(118.066406 0.015625)"/>
     <use xlink:href="#DejaVuSans-31" transform="translate(221.337891 0.015625)"/>
     <use xlink:href="#DejaVuSans-2c" transform="translate(284.960938 0.015625)"/>
     <use xlink:href="#DejaVuSans-30" transform="translate(336.230469 0.015625)"/>
     <use xlink:href="#DejaVuSans-2e" transform="translate(399.853516 0.015625)"/>
     <use xlink:href="#DejaVuSans-35" transform="translate(431.640625 0.015625)"/>
     <use xlink:href="#DejaVuSans-29" transform="translate(495.263672 0.015625)"/>
    </g>
   </g>
   <g id="text_17">
    <!--  $(i+0.5, 0.75)$ -->
    <g transform="translate(260.9 64.880313) scale(0.1 -0.1)">
     <use xlink:href="#DejaVuSans-20" transform="translate(0 0.015625)"/>
     <use xlink:href="#DejaVuSans-28" transform="translate(31.787109 0.015625)"/>
     <use xlink:href="#DejaVuSans-Oblique-69" transform="translate(70.800781 0.015625)"/>
     <use xlink:href="#DejaVuSans-2b" transform="translate(118.066406 0.015625)"/>
     <use xlink:href="#DejaVuSans-30" transform="translate(221.337891 0.015625)"/>
     <use xlink:href="#DejaVuSans-2e" transform="translate(284.960938 0.015625)"/>
     <use xlink:href="#DejaVuSans-35" transform="translate(316.748047 0.015625)"/>
     <use xlink:href="#DejaVuSans-2c" transform="translate(380.371094 0.015625)"/>
     <use xlink:href="#DejaVuSans-30" transform="translate(431.640625 0.015625)"/>
     <use xlink:href="#DejaVuSans-2e" transform="translate(495.263672 0.015625)"/>
     <use xlink:href="#DejaVuSans-37" transform="translate(519.300781 0.015625)"/>
     <use xlink:href="#DejaVuSans-35" transform="translate(582.923828 0.015625)"/>
     <use xlink:href="#DejaVuSans-29" transform="translate(646.546875 0.015625)"/>
    </g>
   </g>
   <g id="text_18">
    <!-- Quadratic B-spline $B_i^2(x)$ for $t_i = i$ -->
    <g transform="translate(197.46 45.84) scale(0.12 -0.12)">
     <defs>
      <path id="DejaVuSans-51" d="M 2522 4238 
Q 1834 4238 1429 3725 
Q 1025 3213 1025 2328 
Q 1025 1447 1429 934 
Q 1834 422 2522 422 
Q 3209 422 3611 934 
Q 4013 1447 4013 2328 
Q 4013 3213 3611 3725 
Q 3209 4238 2522 4238 
z
M 3406 84 
L 4238 -825 
L 3475 -825 
L 2784 -78 
Q 2681 -84 2626 -87 
Q 2572 -91 2522 -91 
Q 1538 -91 948 567 
Q 359 1225 359 2328 
Q 359 3434 948 4092 
Q 1538 4750 2522 4750 
Q 3503 4750 4090 4092 
Q 4678 3434 4678 2328 
Q 4678 1516 4351 937 
Q 4025 359 3406 84 
z
" transform="scale(0.015625)"/>
      <path id="DejaVuSans-75" d="M 544 1381 
L 544 3500 
L 1119 3500 
L 1119 1403 
Q 1119 906 1312 657 
Q 1506 409 1894 409 
Q 2359 409 2629 706 
Q 2900 1003 2900 1516 
L 2900 3500 
L 3475 3500 
L 3475 0 
L 2900 0 
L 2900 538 
Q 2691 219 2414 64 
Q 2138 -91 1772 -91 
Q 1169 -91 856 284 
Q 544 659 544 1381 
z
M 1991 3584 
L 1991 3584 
z
" transform="scale(0.015625)"/>
      <path id="DejaVuSans-61" d="M 2194 1759 
Q 1497 1759 1228 1600 
Q 959 1441 959 1056 
Q 959 750 1161 570 
Q 1363 391 1709 391 
Q 2188 391 2477 730 
Q 2766 1069 2766 1631 
L 2766 1759 
L 2194 1759 
z
M 3341 1997 
L 3341 0 
L 2766 0 
L 2766 531 
Q 2569 213 2275 61 
Q 1981 -91 1556 -91 
Q 1019 -91 701 211 
Q 384 513 384 1019 
Q 384 1609 779 1909 
Q 1175 2209 1959 2209 
L 2766 2209 
L 2766 2266 
Q 2766 2663 2505 2880 
Q 2244 3097 1772 3097 
Q 1472 3097 1187 3025 
Q 903 2953 641 2809 
L 641 3341 
Q 956 3463 1253 3523 
Q 1550 3584 1831 3584 
Q 2591 3584 2966 3190 
Q 3341 2797 3341 1997 
z
" transform="scale(0.015625)"/>
      <path id="DejaVuSans-64" d="M 2906 2969 
L 2906 4863 
L 3481 4863 
L 3481 0 
L 2906 0 
L 2906 525 
Q 2725 213 2448 61 
Q 2172 -91 1784 -91 
Q 1150 -91 751 415 
Q 353 922 353 1747 
Q 353 2572 751 3078 
Q 1150 3584 1784 3584 
Q 2172 3584 2448 3432 
Q 2725 3281 2906 2969 
z
M 947 1747 
Q 947 1113 1208 752 
Q 1469 391 1925 391 
Q 2381 391 2643 752 
Q 2906 1113 2906 1747 
Q 2906 2381 2643 2742 
Q 2381 3103 1925 3103 
Q 1469 3103 1208 2742 
Q 947 2381 947 1747 
z
" transform="scale(0.015625)"/>
      <path id="DejaVuSans-72" d="M 2631 2963 
Q 2534 3019 2420 3045 
Q 2306 3072 2169 3072 
Q 1681 3072 1420 2755 
Q 1159 2438 1159 1844 
L 1159 0 
L 581 0 
L 581 3500 
L 1159 3500 
L 1159 2956 
Q 1341 3275 1631 3429 
Q 1922 3584 2338 3584 
Q 2397 3584 2469 3576 
Q 2541 3569 2628 3553 
L 2631 2963 
z
" transform="scale(0.015625)"/>
      <path id="DejaVuSans-74" d="M 1172 4494 
L 1172 3500 
L 2356 3500 
L 2356 3053 
L 1172 3053 
L 1172 1153 
Q 1172 725 1289 603 
Q 1406 481 1766 481 
L 2356 481 
L 2356 0 
L 1766 0 
Q 1100 0 847 248 
Q 594 497 594 1153 
L 594 3053 
L 172 3053 
L 172 3500 
L 594 3500 
L 594 4494 
L 1172 4494 
z
" transform="scale(0.015625)"/>
      <path id="DejaVuSans-69" d="M 603 3500 
L 1178 3500 
L 1178 0 
L 603 0 
L 603 3500 
z
M 603 4863 
L 1178 4863 
L 1178 4134 
L 603 4134 
L 603 4863 
z
" transform="scale(0.015625)"/>
      <path id="DejaVuSans-63" d="M 3122 3366 
L 3122 2828 
Q 2878 2963 2633 3030 
Q 2388 3097 2138 3097 
Q 1578 3097 1268 2742 
Q 959 2388 959 1747 
Q 959 1106 1268 751 
Q 1578 397 2138 397 
Q 2388 397 2633 464 
Q 2878 531 3122 666 
L 3122 134 
Q 2881 22 2623 -34 
Q 2366 -91 2075 -91 
Q 1284 -91 818 406 
Q 353 903 353 1747 
Q 353 2603 823 3093 
Q 1294 3584 2113 3584 
Q 2378 3584 2631 3529 
Q 2884 3475 3122 3366 
z
" transform="scale(0.015625)"/>
      <path id="DejaVuSans-42" d="M 1259 2228 
L 1259 519 
L 2272 519 
Q 2781 519 3026 730 
Q 3272 941 3272 1375 
Q 3272 1813 3026 2020 
Q 2781 2228 2272 2228 
L 1259 2228 
z
M 1259 4147 
L 1259 2741 
L 2194 2741 
Q 2656 2741 2882 2914 
Q 3109 3088 3109 3444 
Q 3109 3797 2882 3972 
Q 2656 4147 2194 4147 
L 1259 4147 
z
M 628 4666 
L 2241 4666 
Q 2963 4666 3353 4366 
Q 3744 4066 3744 3513 
Q 3744 3084 3544 2831 
Q 3344 2578 2956 2516 
Q 3422 2416 3680 2098 
Q 3938 1781 3938 1306 
Q 3938 681 3513 340 
Q 3088 0 2303 0 
L 628 0 
L 628 4666 
z
" transform="scale(0.015625)"/>
      <path id="DejaVuSans-2d" d="M 313 2009 
L 1997 2009 
L 1997 1497 
L 313 1497 
L 313 2009 
z
" transform="scale(0.015625)"/>
      <path id="DejaVuSans-73" d="M 2834 3397 
L 2834 2853 
Q 2591 2978 2328 3040 
Q 2066 3103 1784 3103 
Q 1356 3103 1142 2972 
Q 928 2841 928 2578 
Q 928 2378 1081 2264 
Q 1234 2150 1697 2047 
L 1894 2003 
Q 2506 1872 2764 1633 
Q 3022 1394 3022 966 
Q 3022 478 2636 193 
Q 2250 -91 1575 -91 
Q 1294 -91 989 -36 
Q 684 19 347 128 
L 347 722 
Q 666 556 975 473 
Q 1284 391 1588 391 
Q 1994 391 2212 530 
Q 2431 669 2431 922 
Q 2431 1156 2273 1281 
Q 2116 1406 1581 1522 
L 1381 1569 
Q 847 1681 609 1914 
Q 372 2147 372 2553 
Q 372 3047 722 3315 
Q 1072 3584 1716 3584 
Q 2034 3584 2315 3537 
Q 2597 3491 2834 3397 
z
" transform="scale(0.015625)"/>
      <path id="DejaVuSans-70" d="M 1159 525 
L 1159 -1331 
L 581 -1331 
L 581 3500 
L 1159 3500 
L 1159 2969 
Q 1341 3281 1617 3432 
Q 1894 3584 2278 3584 
Q 2916 3584 3314 3078 
Q 3713 2572 3713 1747 
Q 3713 922 3314 415 
Q 2916 -91 2278 -91 
Q 1894 -91 1617 61 
Q 1341 213 1159 525 
z
M 3116 1747 
Q 3116 2381 2855 2742 
Q 2594 3103 2138 3103 
Q 1681 3103 1420 2742 
Q 1159 2381 1159 1747 
Q 1159 1113 1420 752 
Q 1681 391 2138 391 
Q 2594 391 2855 752 
Q 3116 1113 3116 1747 
z
" transform="scale(0.015625)"/>
      <path id="DejaVuSans-6c" d="M 603 4863 
L 1178 4863 
L 1178 0 
L 603 0 
L 603 4863 
z
" transform="scale(0.015625)"/>
      <path id="DejaVuSans-6e" d="M 3513 2113 
L 3513 0 
L 2938 0 
L 2938 2094 
Q 2938 2591 2744 2837 
Q 2550 3084 2163 3084 
Q 1697 3084 1428 2787 
Q 1159 2491 1159 1978 
L 1159 0 
L 581 0 
L 581 3500 
L 1159 3500 
L 1159 2956 
Q 1366 3272 1645 3428 
Q 1925 3584 2291 3584 
Q 2894 3584 3203 3211 
Q 3513 2838 3513 2113 
z
" transform="scale(0.015625)"/>
      <path id="DejaVuSans-65" d="M 3597 1894 
L 3597 1613 
L 953 1613 
Q 991 1019 1311 708 
Q 1631 397 2203 397 
Q 2534 397 2845 478 
Q 3156 559 3463 722 
L 3463 178 
Q 3153 47 2828 -22 
Q 2503 -91 2169 -91 
Q 1331 -91 842 396 
Q 353 884 353 1716 
Q 353 2575 817 3079 
Q 1281 3584 2069 3584 
Q 2775 3584 3186 3129 
Q 3597 2675 3597 1894 
z
M 3022 2063 
Q 3016 2534 2758 2815 
Q 2500 3097 2075 3097 
Q 1594 3097 1305 2825 
Q 1016 2553 972 2059 
L 3022 2063 
z
" transform="scale(0.015625)"/>
      <path id="DejaVuSans-66" d="M 2375 4863 
L 2375 4384 
L 1825 4384 
Q 1516 4384 1395 4259 
Q 1275 4134 1275 3809 
L 1275 3500 
L 2222 3500 
L 2222 3053 
L 1275 3053 
L 1275 0 
L 697 0 
L 697 3053 
L 147 3053 
L 147 3500 
L 697 3500 
L 697 3744 
Q 697 4328 969 4595 
Q 1241 4863 1831 4863 
L 2375 4863 
z
" transform="scale(0.015625)"/>
      <path id="DejaVuSans-6f" d="M 1959 3097 
Q 1497 3097 1228 2736 
Q 959 2375 959 1747 
Q 959 1119 1226 758 
Q 1494 397 1959 397 
Q 2419 397 2687 759 
Q 2956 1122 2956 1747 
Q 2956 2369 2687 2733 
Q 2419 3097 1959 3097 
z
M 1959 3584 
Q 2709 3584 3137 3096 
Q 3566 2609 3566 1747 
Q 3566 888 3137 398 
Q 2709 -91 1959 -91 
Q 1206 -91 779 398 
Q 353 888 353 1747 
Q 353 2609 779 3096 
Q 1206 3584 1959 3584 
z
" transform="scale(0.015625)"/>
      <path id="DejaVuSans-Oblique-74" d="M 2706 3500 
L 2619 3053 
L 1472 3053 
L 1100 1153 
Q 1081 1047 1072 975 
Q 1063 903 1063 863 
Q 1063 663 1183 572 
Q 1303 481 1569 481 
L 2150 481 
L 2053 0 
L 1503 0 
Q 991 0 739 200 
Q 488 400 488 806 
Q 488 878 497 964 
Q 506 1050 525 1153 
L 897 3053 
L 409 3053 
L 500 3500 
L 978 3500 
L 1172 4494 
L 1747 4494 
L 1556 3500 
L 2706 3500 
z
" transform="scale(0.015625)"/>
      <path id="DejaVuSans-3d" d="M 678 2906 
L 4684 2906 
L 4684 2381 
L 678 2381 
L 678 2906 
z
M 678 1631 
L 4684 1631 
L 4684 1100 
L 678 1100 
L 678 1631 
z
" transform="scale(0.015625)"/>
     </defs>
     <use xlink:href="#DejaVuSans-51" transform="translate(0 0.701562)"/>
     <use xlink:href="#DejaVuSans-75" transform="translate(78.710938 0.701562)"/>
     <use xlink:href="#DejaVuSans-61" transform="translate(142.089844 0.701562)"/>
     <use xlink:href="#DejaVuSans-64" transform="translate(203.369141 0.701562)"/>
     <use xlink:href="#DejaVuSans-72" transform="translate(266.845703 0.701562)"/>
     <use xlink:href="#DejaVuSans-61" transform="translate(307.958984 0.701562)"/>
     <use xlink:href="#DejaVuSans-74" transform="translate(369.238281 0.701562)"/>
     <use xlink:href="#DejaVuSans-69" transform="translate(408.447266 0.701562)"/>
     <use xlink:href="#DejaVuSans-63" transform="translate(436.230469 0.701562)"/>
     <use xlink:href="#DejaVuSans-20" transform="translate(491.210938 0.701562)"/>
     <use xlink:href="#DejaVuSans-42" transform="translate(522.998047 0.701562)"/>
     <use xlink:href="#DejaVuSans-2d" transform="translate(591.601562 0.701562)"/>
     <use xlink:href="#DejaVuSans-73" transform="translate(627.685547 0.701562)"/>
     <use xlink:href="#DejaVuSans-70" transform="translate(679.785156 0.701562)"/>
     <use xlink:href="#DejaVuSans-6c" transform="translate(743.261719 0.701562)"/>
     <use xlink:href="#DejaVuSans-69" transform="translate(771.044922 0.701562)"/>
     <use xlink:href="#DejaVuSans-6e" transform="translate(798.828125 0.701562)"/>
     <use xlink:href="#DejaVuSans-65" transform="translate(862.207031 0.701562)"/>
     <use xlink:href="#DejaVuSans-20" transform="translate(923.730469 0.701562)"/>
     <use xlink:href="#DejaVuSans-Oblique-42" transform="translate(955.517578 0.701562)"/>
     <use xlink:href="#DejaVuSans-32" transform="translate(1031.137865 39.046875) scale(0.7)"/>
     <use xlink:href="#DejaVuSans-Oblique-69" transform="translate(1024.121094 -26.642188) scale(0.7)"/>
     <use xlink:href="#DejaVuSans-28" transform="translate(1078.408372 0.701562)"/>
     <use xlink:href="#DejaVuSans-Oblique-78" transform="translate(1117.422044 0.701562)"/>
     <use xlink:href="#DejaVuSans-29" transform="translate(1176.601732 0.701562)"/>
     <use xlink:href="#DejaVuSans-20" transform="translate(1215.615404 0.701562)"/>
     <use xlink:href="#DejaVuSans-66" transform="translate(1247.402513 0.701562)"/>
     <use xlink:href="#DejaVuSans-6f" transform="translate(1282.607591 0.701562)"/>
     <use xlink:href="#DejaVuSans-72" transform="translate(1343.789232 0.701562)"/>
     <use xlink:href="#DejaVuSans-20" transform="translate(1384.902513 0.701562)"/>
     <use xlink:href="#DejaVuSans-Oblique-74" transform="translate(1416.689622 0.701562)"/>
     <use xlink:href="#DejaVuSans-Oblique-69" transform="translate(1455.898607 -15.704688) scale(0.7)"/>
     <use xlink:href="#DejaVuSans-3d" transform="translate(1497.563646 0.701562)"/>
     <use xlink:href="#DejaVuSans-Oblique-69" transform="translate(1600.83513 0.701562)"/>
    </g>
   </g>
   <g id="legend_1">
    <g id="patch_7">
     <path d="M 266.15 228.11 
L 324.25 228.11 
Q 326.25 228.11 326.25 226.11 
L 326.25 210.21 
Q 326.25 208.21 324.25 208.21 
L 266.15 208.21 
Q 264.15 208.21 264.15 210.21 
L 264.15 226.11 
Q 264.15 228.11 266.15 228.11 
z
" style="fill: #ffffff; opacity: 0.8; stroke: #cccccc; stroke-linejoin: miter"/>
    </g>
    <g id="line2d_34">
     <path d="M 268.15 217.81 
L 278.15 217.81 
L 288.15 217.81 
" style="fill: none; stroke: #0000ff; stroke-width: 1.5; stroke-linecap: square"/>
    </g>
    <g id="text_19">
     <!-- $B_i^2(x)$ -->
     <g transform="translate(296.15 221.31) scale(0.1 -0.1)">
      <use xlink:href="#DejaVuSans-Oblique-42" transform="translate(0 0.701562)"/>
      <use xlink:href="#DejaVuSans-32" transform="translate(75.620286 39.046875) scale(0.7)"/>
      <use xlink:href="#DejaVuSans-Oblique-69" transform="translate(68.603516 -26.642188) scale(0.7)"/>
      <use xlink:href="#DejaVuSans-28" transform="translate(122.890794 0.701562)"/>
      <use xlink:href="#DejaVuSans-Oblique-78" transform="translate(161.904466 0.701562)"/>
      <use xlink:href="#DejaVuSans-29" transform="translate(221.084154 0.701562)"/>
     </g>
    </g>
   </g>
  </g>
 </g>
 <defs>
  <clipPath id="p59179d9f7a">
   <rect x="72" y="51.84" width="446.4" height="332.64"/>
  </clipPath>
 </defs>
</svg>
